<?xml version="1.0" standalone="no"?>
<!DOCTYPE svg PUBLIC "-//W3C//DTD SVG 20010904//EN"
 "http://www.w3.org/TR/2001/REC-SVG-20010904/DTD/svg10.dtd">
<svg version="1.0" xmlns="http://www.w3.org/2000/svg"
 width="225.000000pt" height="225.000000pt" viewBox="0 0 225.000000 225.000000"
 preserveAspectRatio="xMidYMid meet">
<metadata>
Created by potrace 1.11, written by Peter Selinger 2001-2013
</metadata>
<g transform="translate(0.000000,225.000000) scale(0.100000,-0.100000)"
fill="#000000" stroke="none">
<path d="M1019 2245 c-4 -3 -67 -21 -140 -39 -74 -19 -168 -49 -210 -68 -242
-112 -445 -315 -557 -557 -19 -42 -51 -137 -70 -211 -31 -116 -36 -150 -36
-245 0 -188 76 -432 187 -601 118 -179 285 -324 476 -412 42 -19 137 -51 211
-70 117 -32 149 -36 245 -36 137 1 174 6 308 44 189 53 340 142 482 285 51 50
113 124 139 164 62 94 127 230 131 272 3 40 29 153 51 224 35 113 -13 401 -98
586 -112 242 -315 445 -557 557 -120 55 -326 105 -451 109 -58 2 -108 1 -111
-2z m254 -612 c253 -218 493 -428 499 -438 15 -20 8 -62 -12 -80 -33 -29 -83
-24 -129 13 l-40 32 -3 -280 -3 -280 -33 -32 -32 -33 -129 -3 -129 -4 -4 189
c-3 206 -8 224 -62 243 -41 14 -111 12 -151 -4 -47 -20 -55 -57 -55 -258 l0
-168 -115 0 c-130 0 -165 11 -190 60 -12 24 -15 77 -15 300 0 148 -3 270 -6
270 -3 0 -23 -14 -45 -32 -46 -37 -96 -42 -129 -13 -20 18 -27 60 -12 80 4 6
77 71 162 145 85 74 157 137 160 140 23 24 278 238 290 243 41 17 82 -3 183
-90z"/>
<path d="M1039 1311 c-41 -42 -41 -96 2 -137 26 -25 38 -29 84 -29 46 0 58 4
84 29 43 41 43 95 2 137 -26 25 -37 29 -86 29 -49 0 -60 -4 -86 -29z"/>
</g>
</svg>
