<?xml version="1.0" standalone="no"?>
<!DOCTYPE svg PUBLIC "-//W3C//DTD SVG 20010904//EN"
 "http://www.w3.org/TR/2001/REC-SVG-20010904/DTD/svg10.dtd">
<svg version="1.0" xmlns="http://www.w3.org/2000/svg"
 width="400.000000pt" height="400.000000pt" viewBox="0 0 400.000000 400.000000"
 preserveAspectRatio="xMidYMid meet">
<metadata>
Created by potrace 1.11, written by Peter Selinger 2001-2013
</metadata>
<g transform="translate(0.000000,400.000000) scale(0.100000,-0.100000)"
fill="#000000" stroke="none">
<path d="M287 3869 c-72 -24 -127 -77 -154 -148 -17 -43 -18 -138 -18 -1721 0
-1580 1 -1678 18 -1721 23 -61 85 -123 144 -146 46 -17 126 -18 1723 -18 1598
0 1677 1 1723 18 61 24 120 83 143 144 18 46 19 117 19 1723 0 1574 -1 1678
-18 1720 -24 61 -75 116 -134 142 l-48 22 -1675 1 c-1517 0 -1680 -1 -1723
-16z"/>
</g>
</svg>
